
        <svg xmlns="http://www.w3.org/2000/svg" xmlns:xlink="http://www.w3.org/1999/xlink" version="1.1" width="3202.7027027027025" 
        height="1781.5481766804503" viewBox="0 0 3202.7027027027025 1781.5481766804503">
			
			<g transform="scale(10.135135135135135) translate(10, 10)">
				<defs id="SvgjsDefs2084"></defs><g id="SvgjsG2085" featureKey="symbolFeature-0" transform="matrix(0.9473676602271952,0,0,0.9473676602271952,-7.473670277910513,14.631645900006824)" fill="#cff0fd"><g xmlns="http://www.w3.org/2000/svg" transform="translate(0,-952.36218)"><path d="m 60.7828,964.36215 27.1809,0.8834 -27.1809,25.9958 z m -1.9745,1.4513 0,26.7845 -25.2681,0 c 8.6166,-8.7334 16.8796,-17.8103 25.2681,-26.7845 z m 27.7053,3.628 3.4864,1.1989 -12.5877,7.4768 z m -68.1835,2.9656 5.5226,0 12.8654,14.0705 -5.9854,6.1204 -12.4026,0 c 9e-4,-6.7347 0,-13.4597 0,-20.1909 z m -1.9746,1.2304 0,5.8364 -6.3555,0 z m 3.363,20.9796 38.627,0 -10.7675,29.43465 z m 39.0898,4.54286 0,41.20229 -12.5878,-6.8775 c 4.1972,-11.443 8.3886,-22.879 12.5878,-34.32479 z" style="text-indent:0;text-transform:none;direction:ltr;block-progression:tb;baseline-shift:baseline;color:;enable-background:accumulate;" fill="#cff0fd" fill-opacity="1" stroke="none" marker="none" visibility="visible" display="inline" overflow="visible"></path></g></g><g id="SvgjsG2086" featureKey="nameFeature-0" transform="matrix(6.25,0,0,6.25,83.5,-123.75000715255737)" fill="#fde50a"><path d="M34 29.2 l0 10.8 l-6 0 l0 -10.8 c0 -2.28 -1.08 -3.84 -3.48 -3.84 c-2.36 0 -3.52 1.6 -3.52 3.84 l0 10.8 l-6 0 l0 -10.8 c0 -2.28 -1.16 -3.84 -3.56 -3.84 c-2.36 0 -3.44 1.6 -3.44 3.84 l0 10.8 l-6 0 l0 -10.8 c0 -5.8 3.96 -9.4 9.52 -9.4 c2.84 0 5.04 1.32 6.48 3.76 c1.44 -2.44 3.64 -3.76 6.48 -3.76 c5.76 0 9.52 3.8 9.52 9.4 z"></path></g><g id="SvgjsG2087" featureKey="sloganFeature-0" transform="matrix(1.615965724591744,0,0,1.615965724591744,117.74144727174713,123.46010560730286)" fill="#dffed8"><path d="M13.9 7.76 l2.92 0 l-2.26 12.24 l-4.44 0 l-1.6 -7.14 l-1.7 7.14 l-4.68 0 l-1.98 -12.24 l3.06 0 l1.38 9.16 l1.8 -7.14 l4.26 0 l1.72 7.14 z M21.242 7.76 l9.1 0 l0 2.78 l-6.1 0 l0 1.96 l4.9 0 l0 2.78 l-4.9 0 l0 1.94 l6.1 0 l0 2.78 l-9.1 0 l0 -12.24 z M44.184 13.719999999999999 c0.88 0.62 1.4 1.54 1.4 2.62 c0 2.08 -1.92 3.66 -3.92 3.66 l-6.5 0 l0 -12.24 l6.1 0 c1.6 0 2.92 0.86 3.62 2.28 c0.2 0.46 0.3 0.92 0.3 1.4 c0 0.9 -0.36 1.64 -1 2.28 z M38.164 10.54 l0 1.96 l3.1 0 c0.52 0 0.92 -0.5 0.92 -1 c0 -0.52 -0.38 -0.96 -0.92 -0.96 l-3.1 0 z M38.164 15.280000000000001 l0 1.94 l3.5 0 c0.54 0 0.92 -0.44 0.92 -0.96 c0 -0.26 -0.1 -0.5 -0.28 -0.7 c-0.18 -0.18 -0.4 -0.28 -0.64 -0.28 l-3.5 0 z M62.228 20 l-4.3 0 l0 -12.24 l4.3 0 c3.74 0 6.3 2.44 6.3 6.12 c0 3.78 -2.7 6.12 -6.3 6.12 z M60.928000000000004 10.54 l0 6.68 l1.3 0 c2.12 0 3.3 -1.34 3.3 -3.34 c0 -0.46 -0.06 -0.88 -0.18 -1.3 c-0.52 -1.46 -1.66 -2.04 -3.12 -2.04 l-1.3 0 z M73.51 7.76 l9.1 0 l0 2.78 l-6.1 0 l0 1.96 l4.9 0 l0 2.78 l-4.9 0 l0 1.94 l6.1 0 l0 2.78 l-9.1 0 l0 -12.24 z M95.892 7.76 l3.28 0 l-4.9 12.24 l-3 0 l-4.9 -12.24 l3.26 0 l3.14 8.82 z"></path></g>
			</g>
		</svg>
	